# xmcd CD database file
#
# Track frame offsets:
#	150
#	16042
#	28818
#	51132
#	63411
#	83431
#	108134
#	123159
#	138451
#	166360
#	181528
#
# Disc length: 2693 seconds
#
# Revision: 0
# Processed by: cddbd v1.5.2PL0 Copyright (c) Steve Scherf et al.
# Submitted via: CDex 1.51
#
DISCID=7b0a830b
DTITLE=Melody Gardot - My One And Only Thrill
DYEAR=2009
DGENRE=Jazz
TTITLE0=Baby I'm A Fool
TTITLE1=If The Stars Were Mine
TTITLE2=Who Will Comfort Me
TTITLE3=Your Heart Is As Black As Night
TTITLE4=Lover Undercover
TTITLE5=Our Love Is Easy
TTITLE6=Les Etoiles
TTITLE7=The Rain
TTITLE8=My One And Only Thrill
TTITLE9=Deep Within The Corners Of My Mind
TTITLE10=Over The Rainbow
EXTD=YEAR: 2009
EXTT0=
EXTT1=
EXTT2=
EXTT3=
EXTT4=
EXTT5=
EXTT6=
EXTT7=
EXTT8=
EXTT9=
EXTT10=
PLAYORDER=
